<svg xmlns="http://www.w3.org/2000/svg" width="330" height="330">
  <g fill="none" stroke="#3A3A3A" stroke-width="3">
    <g>
      <path stroke="#6F6F6F" stroke-dasharray="5 5" d="M38 238l132-61m-4-152l4 152 121 63"/>
      <path d="M150 137l147-63M156 316l-6-179L23 74m15 164L23 74l143-49 131 49-6 166-135 76z"/>
      <animate attributeName="display" begin="0s" dur="2s" keyTimes="0;0.05;1" repeatCount="indefinite" values="inline;none;none"/>
    </g>
    <g>
      <path stroke="#6F6F6F" stroke-dasharray="5 5" d="M37 241l128-64m-4-152l4 152 126 60"/>
      <path d="M157 137l140-65M22 76l135 61 5 179M37 241L22 76l139-51 136 47-6 165-129 79z"/>
      <animate attributeName="display" begin="0s" dur="2s" keyTimes="0;0.05;0.1;1" repeatCount="indefinite" values="none;inline;none;none"/>
    </g>
    <g>
      <path stroke="#6F6F6F" stroke-dasharray="5 5" d="M36 250l114-73m-5-152l5 152 138 51"/>
      <path d="M177 136l117-71M180 315l-3-179L21 84m15 166L21 84l124-59 149 40-6 163-108 87z"/>
      <animate attributeName="display" begin="0s" dur="2s" keyTimes="0;0.1;0.15;1" repeatCount="indefinite" values="none;inline;none;none"/>
    </g>
    <g>
      <path stroke="#6F6F6F" stroke-dasharray="5 5" d="M39 264l88-84m-7-152l7 152 153 35"/>
      <path d="M208 132l77-77m-76 255l-1-178L23 95m186 215l71-95 5-160-165-27-97 67 16 169z"/>
      <animate attributeName="display" begin="0s" dur="2s" keyTimes="0;0.15;0.2;1" repeatCount="indefinite" values="none;inline;none;none"/>
    </g>
    <g>
      <path stroke="#6F6F6F" stroke-dasharray="5 5" d="M51 282l48-94M90 34l9 154 164 12"/>
      <path d="M243 123l24-80m-26 257l2-177-207-14m0 0l15 173 190 18 22-100 4-157-177-9z"/>
      <animate attributeName="display" begin="0s" dur="2s" keyTimes="0;0.2;0.25;1" repeatCount="indefinite" values="none;inline;none;none"/>
    </g>
    <g>
      <path stroke="#6F6F6F" stroke-dasharray="5 5" d="M75 298l-2-99M61 43l12 156 166-11m2-154l-2 154 29 96"/>
      <path d="M62 123l211-13m0 0l-32-76-180 9 1 80 13 175 193-14z"/>
      <animate attributeName="display" begin="0s" dur="2s" keyTimes="0;0.25;0.3;1" repeatCount="indefinite" values="none;inline;none;none"/>
    </g>
    <g>
      <path stroke="#6F6F6F" stroke-dasharray="5 5" d="M53 213l159-32m0-153v153l72 85"/>
      <path d="M94 132l196-36M105 309L94 132 40 54m13 159L40 54l172-26 78 68-6 170-179 43z"/>
      <animate attributeName="display" begin="0s" dur="2s" keyTimes="0;0.3;0.35;1" repeatCount="indefinite" values="none;inline;none;none"/>
    </g>
    <g>
      <path stroke="#6F6F6F" stroke-dasharray="5 5" d="M43 226l147-49m-3-152l3 152 100 75"/>
      <path d="M124 136l172-52M132 314l-8-178-95-71m158-40l109 59-6 168-158 62-89-88L29 65z"/>
      <animate attributeName="display" begin="0s" dur="2s" keyTimes="0;0.35;0.4;1" repeatCount="indefinite" values="none;inline;none;none"/>
    </g>
    <g>
      <path stroke="#6F6F6F" stroke-dasharray="5 5" d="M39 235l136-58m-3-152l3 152 116 66"/>
      <path d="M144 137l153-60M24 72l120 65 6 179M39 235L24 72l148-47 125 52-6 166-141 73z"/>
      <animate attributeName="display" begin="0s" dur="2s" keyTimes="0;0.4;0.45;1" repeatCount="indefinite" values="none;inline;none;none"/>
    </g>
    <g>
      <path stroke="#6F6F6F" stroke-dasharray="5 5" d="M38 238l132-61m-4-152l4 152 121 63"/>
      <path d="M150 137l147-63M23 74l127 63 6 179m135-76l-135 76-118-78L23 74l143-49 131 49z"/>
      <animate attributeName="display" begin="0s" dur="2s" keyTimes="0;0.45;0.5;1" repeatCount="indefinite" values="none;inline;none;none"/>
    </g>
    <g>
      <path stroke="#6F6F6F" stroke-dasharray="5 5" d="M35 234l133-61m0-150v150l121 68"/>
      <path d="M153 141l146-62M24 72l129 69 1 176M35 234L24 72l144-49 131 56-10 162-135 76z"/>
      <animate attributeName="display" begin="0s" dur="2s" keyTimes="0;0.5;0.55;1" repeatCount="indefinite" values="none;inline;none;none"/>
    </g>
    <g>
      <path stroke="#6F6F6F" stroke-dasharray="5 5" d="M30 222l133-60m12-145l-12 145 118 82"/>
      <path d="M160 156l146-65M30 66l130 90-13 164m134-76l-134 76-117-98V66l145-49 131 74z"/>
      <animate attributeName="display" begin="0s" dur="2s" keyTimes="0;0.55;0.6;1" repeatCount="indefinite" values="none;inline;none;none"/>
    </g>
    <g>
      <path stroke="#6F6F6F" stroke-dasharray="5 5" d="M22 202l133-58m32-133l-32 133 112 103"/>
      <path d="M170 181l145-68M41 60l129 121-36 140m53-310L41 60 22 202l112 119 133-74 48-134z"/>
      <animate attributeName="display" begin="0s" dur="2s" keyTimes="0;0.6;0.65;1" repeatCount="indefinite" values="none;inline;none;none"/>
    </g>
    <g>
      <path stroke="#6F6F6F" stroke-dasharray="5 5" d="M14 176l135-56M205 8l-56 112 100 125"/>
      <path d="M179 213l143-71M116 318l63-105L58 58m0 0L14 176l102 142 133-73 73-103L205 8z"/>
      <animate attributeName="display" begin="0s" dur="2s" keyTimes="0;0.65;0.7;1" repeatCount="indefinite" values="none;inline;none;none"/>
    </g>
    <g>
      <path stroke="#6F6F6F" stroke-dasharray="5 5" d="M8 146l138-53m82-81l-82 81 81 143"/>
      <path d="M183 248l141-74M95 307l88-59L80 64m244 110L228 12 80 64 8 146l87 161 132-71z"/>
      <animate attributeName="display" begin="0s" dur="2s" keyTimes="0;0.7;0.75;1" repeatCount="indefinite" values="none;inline;none;none"/>
    </g>
    <g>
      <path stroke="#6F6F6F" stroke-dasharray="5 5" d="M207 222L75 289M8 119l139-52m105-42L147 67l60 155 112-21"/>
      <path d="M103 79l77 198M103 79L8 119l67 170 105-12 139-76-67-176z"/>
      <animate attributeName="display" begin="0s" dur="2s" keyTimes="0;0.75;0.8;1" repeatCount="indefinite" values="none;inline;none;none"/>
    </g>
    <g>
      <path stroke="#6F6F6F" stroke-dasharray="5 5" d="M190 205L58 270m95-223l37 158 120 16"/>
      <path d="M272 42L124 99M11 97l113 2 49 199m137-77l-137 77-115-28L11 97l142-50 119-5z"/>
      <animate attributeName="display" begin="0s" dur="2s" keyTimes="0;0.8;0.85;1" repeatCount="indefinite" values="none;inline;none;none"/>
    </g>
    <g>
      <path stroke="#6F6F6F" stroke-dasharray="5 5" d="M178 190L46 253M159 34l19 156 122 43"/>
      <path d="M287 59l-148 60m25 190l-25-190L17 83m29 170L17 83l142-49 128 25 13 174-136 76z"/>
      <animate attributeName="display" begin="0s" dur="2s" keyTimes="0;0.85;0.9;1" repeatCount="indefinite" values="none;inline;none;none"/>
    </g>
    <g>
      <path stroke="#6F6F6F" stroke-dasharray="5 5" d="M172 180L40 242M165 27l7 153 121 58"/>
      <path d="M295 70l-147 62M21 76l127 56 10 183m135-77l-135 77-118-73L21 76l144-49 130 43z"/>
      <animate attributeName="display" begin="0s" dur="2s" keyTimes="0;0.9;0.95;1" repeatCount="indefinite" values="none;inline;none;none"/>
    </g>
    <g>
      <path stroke="#6F6F6F" stroke-dasharray="5 5" d="M170 177L38 238M166 25l4 152 121 63"/>
      <path d="M297 74l-147 63m6 179l-6-179L23 74m133 242l135-76 6-166-131-49L23 74l15 164z"/>
      <animate attributeName="display" begin="0s" dur="2s" keyTimes="0;0.95;1" repeatCount="indefinite" values="none;inline;none"/>
    </g>
  </g>
</svg>
